# xmcd
#
# Track frame offsets:
#	150
#	15323
#	27020
#	41924
#	53793
#	64933
#	76839
#	89749
#	101418
#	111256
#	123936
#	137588
#	151528
#	167503
#	180306
#	196100
#	209715
#	227483
#	241566
#	255326
#	268736
#
# Disc length: 3765 seconds
#
# Revision: 0
# Processed by: cddbd v1.5.1PL0 Copyright (c) Steve Scherf et al.
# Submitted via: audiograbber 1.83.01
#
DISCID=020eb315
DTITLE=España en Eurovisión - CD1
DYEAR=2005
DGENRE=Eurovision
TTITLE0=61 Spanien  Conchita Bautista - Estando contigo
TTITLE1=62 Spanien  Víctor Balaguer - Llámame
TTITLE2=63 Spanien  José Guardiola - Algo prodigioso
TTITLE3=64 Spanien  Los TNT - Caracola
TTITLE4=65 Spanien  Conchita Bautista - ¡Qué bueno qué bueno!
TTITLE5=66 Spanien  Raphael - Yo soy aquel
TTITLE6=67 Spanien  Raphael - Hablemos del amor
TTITLE7=68 Spanien  Massiel - La la la
TTITLE8=69 Spanien  Salomé - Vivo cantando
TTITLE9=70 Spanien  Julio Iglesias - Gwendolyne
TTITLE10=71 Spanien  Karina - En un mundo nuevo
TTITLE11=72 Spanien  Jaime Morey - Amanece
TTITLE12=73 Spanien  Mocedades - Eres tú
TTITLE13=74 Spanien  Peret - Canta y sé feliz
TTITLE14=75 Spanien  Sergio y Estíbaliz - Tú volverás
TTITLE15=76 Spanien  Braulio - Sobran las palabras
TTITLE16=77 Spanien  Micky - Enséñame a cantar
TTITLE17=78 Spanien  José Vélez - Bailemos un vals
TTITLE18=79 Spanien  Betty Missiego - Su canción
TTITLE19=80 Spanien  Trigo Limpio - Quédate esta noche
TTITLE20=71 Spanien  Karina - En un mundo nuevo  [italiensk version]
EXTD=1961-1980
EXTT0=
EXTT1=
EXTT2=
EXTT3=
EXTT4=
EXTT5=
EXTT6=
EXTT7=
EXTT8=
EXTT9=
EXTT10=
EXTT11=
EXTT12=
EXTT13=
EXTT14=
EXTT15=
EXTT16=
EXTT17=
EXTT18=
EXTT19=
EXTT20=
PLAYORDER=
